<?xml version="1.0" encoding="UTF-8"?>
<svg width="700pt" height="700pt" version="1.1" viewBox="0 0 700 700" xmlns="http://www.w3.org/2000/svg" xmlns:xlink="http://www.w3.org/1999/xlink">
 <defs>
  <symbol id="n" overflow="visible">
   <path d="m29.312-1.75c-1.5117 0.78125-3.0898 1.3711-4.7344 1.7656-1.6367 0.40625-3.3398 0.60938-5.1094 0.60938-5.3125 0-9.5273-1.4844-12.641-4.4531-3.1055-2.9688-4.6562-7-4.6562-12.094s1.5508-9.125 4.6562-12.094c3.1133-2.9688 7.3281-4.4531 12.641-4.4531 1.7695 0 3.4727 0.19922 5.1094 0.59375 1.6445 0.39844 3.2227 0.99219 4.7344 1.7812v6.5938c-1.5312-1.0391-3.0391-1.8008-4.5156-2.2812-1.4805-0.48828-3.0391-0.73438-4.6719-0.73438-2.9375 0-5.2461 0.94531-6.9219 2.8281-1.6797 1.875-2.5156 4.4648-2.5156 7.7656 0 3.293 0.83594 5.8828 2.5156 7.7656 1.6758 1.875 3.9844 2.8125 6.9219 2.8125 1.6328 0 3.1914-0.23828 4.6719-0.71875 1.4766-0.48828 2.9844-1.2539 4.5156-2.2969z"/>
  </symbol>
  <symbol id="i" overflow="visible">
   <path d="m21.453-17.406c-0.67969-0.3125-1.3516-0.53906-2.0156-0.6875-0.65625-0.15625-1.3203-0.23438-1.9844-0.23438-1.9688 0-3.4844 0.63281-4.5469 1.8906-1.0547 1.2617-1.5781 3.0703-1.5781 5.4219v11.016h-7.6562v-23.922h7.6562v3.9219c0.97656-1.5625 2.1016-2.7031 3.375-3.4219 1.2812-0.71875 2.8125-1.0781 4.5938-1.0781 0.25 0 0.52344 0.011719 0.82812 0.03125 0.30078 0.023438 0.73438 0.070312 1.2969 0.14062z"/>
  </symbol>
  <symbol id="c" overflow="visible">
   <path d="m27.562-12.031v2.1875h-17.891c0.1875 1.793 0.83203 3.1367 1.9375 4.0312 1.1133 0.89844 2.6719 1.3438 4.6719 1.3438 1.6016 0 3.25-0.23438 4.9375-0.70312 1.6875-0.47656 3.4219-1.2031 5.2031-2.1719v5.8906c-1.8047 0.6875-3.6094 1.2031-5.4219 1.5469-1.8125 0.35156-3.6211 0.53125-5.4219 0.53125-4.3359 0-7.7031-1.0977-10.109-3.2969-2.3984-2.207-3.5938-5.2969-3.5938-9.2656 0-3.9062 1.1758-6.9727 3.5312-9.2031 2.3633-2.2383 5.6094-3.3594 9.7344-3.3594 3.7578 0 6.7695 1.1367 9.0312 3.4062 2.2578 2.2617 3.3906 5.2812 3.3906 9.0625zm-7.8594-2.5312c0-1.457-0.42969-2.6289-1.2812-3.5156-0.84375-0.89453-1.9492-1.3438-3.3125-1.3438-1.4922 0-2.6992 0.41797-3.625 1.25-0.91797 0.83594-1.4922 2.0391-1.7188 3.6094z"/>
  </symbol>
  <symbol id="b" overflow="visible">
   <path d="m14.391-10.766c-1.5938 0-2.793 0.27344-3.5938 0.8125-0.80469 0.54297-1.2031 1.3398-1.2031 2.3906 0 0.96875 0.32031 1.7305 0.96875 2.2812 0.64453 0.54297 1.5469 0.8125 2.7031 0.8125 1.4375 0 2.6445-0.51562 3.625-1.5469 0.98828-1.0312 1.4844-2.3203 1.4844-3.875v-0.875zm11.688-2.8906v13.656h-7.7031v-3.5469c-1.0312 1.4492-2.1875 2.5078-3.4688 3.1719s-2.8398 1-4.6719 1c-2.4805 0-4.4961-0.72266-6.0469-2.1719-1.543-1.4453-2.3125-3.3203-2.3125-5.625 0-2.8125 0.96094-4.8672 2.8906-6.1719 1.9375-1.3125 4.9688-1.9688 9.0938-1.9688h4.5156v-0.60938c0-1.207-0.48047-2.0938-1.4375-2.6562-0.94922-0.5625-2.4375-0.84375-4.4688-0.84375-1.6367 0-3.1562 0.16797-4.5625 0.5-1.4062 0.32422-2.7188 0.8125-3.9375 1.4688v-5.8281c1.6445-0.40625 3.2891-0.70703 4.9375-0.90625 1.6562-0.20703 3.3047-0.3125 4.9531-0.3125 4.3203 0 7.4375 0.85547 9.3438 2.5625 1.9141 1.6992 2.875 4.4609 2.875 8.2812z"/>
  </symbol>
  <symbol id="a" overflow="visible">
   <path d="m12.031-30.719v6.7969h7.875v5.4688h-7.875v10.141c0 1.1172 0.21875 1.8711 0.65625 2.2656 0.4375 0.38672 1.3125 0.57812 2.625 0.57812h3.9375v5.4688h-6.5625c-3.0234 0-5.1641-0.62891-6.4219-1.8906-1.2617-1.2578-1.8906-3.3984-1.8906-6.4219v-10.141h-3.7969v-5.4688h3.7969v-6.7969z"/>
  </symbol>
  <symbol id="d" overflow="visible">
   <path d="m19.953-20.422v-12.812h7.6875v33.234h-7.6875v-3.4531c-1.0547 1.4062-2.2148 2.4375-3.4844 3.0938-1.2734 0.65625-2.7422 0.98438-4.4062 0.98438-2.9492 0-5.3711-1.1719-7.2656-3.5156-1.8867-2.3438-2.8281-5.3594-2.8281-9.0469s0.94141-6.7031 2.8281-9.0469c1.8945-2.3438 4.3164-3.5156 7.2656-3.5156 1.6562 0 3.1172 0.33594 4.3906 1 1.2812 0.65625 2.4453 1.6836 3.5 3.0781zm-5.0469 15.484c1.6445 0 2.8945-0.59766 3.75-1.7969 0.86328-1.1953 1.2969-2.9297 1.2969-5.2031 0-2.2812-0.43359-4.0195-1.2969-5.2188-0.85547-1.1953-2.1055-1.7969-3.75-1.7969-1.625 0-2.8711 0.60156-3.7344 1.7969-0.85547 1.1992-1.2812 2.9375-1.2812 5.2188 0 2.2734 0.42578 4.0078 1.2812 5.2031 0.86328 1.1992 2.1094 1.7969 3.7344 1.7969z"/>
  </symbol>
  <symbol id="h" overflow="visible">
   <path d="m16.406-4.9375c1.6328 0 2.8828-0.59766 3.75-1.7969 0.86328-1.1953 1.2969-2.9297 1.2969-5.2031 0-2.2812-0.43359-4.0195-1.2969-5.2188-0.86719-1.1953-2.1172-1.7969-3.75-1.7969-1.6367 0-2.8906 0.60547-3.7656 1.8125-0.875 1.1992-1.3125 2.9336-1.3125 5.2031 0 2.2617 0.4375 3.9961 1.3125 5.2031 0.875 1.1992 2.1289 1.7969 3.7656 1.7969zm-5.0781-15.484c1.0508-1.3945 2.2188-2.4219 3.5-3.0781 1.2812-0.66406 2.7539-1 4.4219-1 2.9453 0 5.3672 1.1719 7.2656 3.5156 1.8945 2.3438 2.8438 5.3594 2.8438 9.0469s-0.94922 6.7031-2.8438 9.0469c-1.8984 2.3438-4.3203 3.5156-7.2656 3.5156-1.668 0-3.1406-0.33594-4.4219-1s-2.4492-1.6914-3.5-3.0781v3.4531h-7.6562v-33.234h7.6562z"/>
  </symbol>
  <symbol id="g" overflow="visible">
   <path d="m0.53125-23.922h7.6562l6.4219 16.234 5.4688-16.234h7.6562l-10.062 26.188c-1.0117 2.6641-2.1953 4.5234-3.5469 5.5781-1.3438 1.0625-3.1211 1.5938-5.3281 1.5938h-4.4219v-5.0156h2.3906c1.3008 0 2.2422-0.21094 2.8281-0.625 0.59375-0.40625 1.0547-1.1484 1.3906-2.2188l0.20312-0.65625z"/>
  </symbol>
  <symbol id="f" overflow="visible">
   <path d="m32.688-2.375c-2.0547 1-4.1836 1.75-6.3906 2.25-2.2109 0.5-4.4844 0.75-6.8281 0.75-5.3125 0-9.5273-1.4844-12.641-4.4531-3.1055-2.9688-4.6562-7-4.6562-12.094 0-5.1328 1.5781-9.1758 4.7344-12.125 3.1641-2.9453 7.5-4.4219 13-4.4219 2.125 0 4.1562 0.19922 6.0938 0.59375 1.9453 0.39844 3.7852 0.99219 5.5156 1.7812v6.5938c-1.7812-1.0078-3.5547-1.7656-5.3125-2.2656-1.7617-0.5-3.5273-0.75-5.2969-0.75-3.2734 0-5.793 0.91797-7.5625 2.75-1.7734 1.8359-2.6562 4.4492-2.6562 7.8438 0 3.375 0.85156 5.9844 2.5625 7.8281 1.707 1.8359 4.1328 2.75 7.2812 2.75 0.85156 0 1.6445-0.050781 2.375-0.15625 0.73828-0.10156 1.3984-0.26953 1.9844-0.5v-6.2031h-5.0312v-5.5h12.828z"/>
  </symbol>
  <symbol id="e" overflow="visible">
   <path d="m3.6719-23.922h7.6562v23.922h-7.6562zm0-9.3125h7.6562v6.2344h-7.6562z"/>
  </symbol>
  <symbol id="m" overflow="visible">
   <path d="m3.4219-9.3125v-14.609h7.6875v2.3906c0 1.293-0.011719 2.918-0.03125 4.875-0.011719 1.9609-0.015625 3.2656-0.015625 3.9219 0 1.9297 0.046875 3.3125 0.14062 4.1562 0.10156 0.84375 0.28125 1.4609 0.53125 1.8438 0.3125 0.5 0.71875 0.88672 1.2188 1.1562 0.50781 0.27344 1.0938 0.40625 1.75 0.40625 1.5938 0 2.8438-0.60938 3.75-1.8281 0.91406-1.2266 1.375-2.9297 1.375-5.1094v-11.812h7.6406v23.922h-7.6406v-3.4531c-1.1562 1.3867-2.3828 2.4141-3.6719 3.0781-1.2812 0.66406-2.6992 1-4.25 1-2.7734 0-4.8828-0.84766-6.3281-2.5469-1.4375-1.6953-2.1562-4.1602-2.1562-7.3906z"/>
  </symbol>
  <symbol id="l" overflow="visible">
   <path d="m0.21875-31.891h8.2656l8.4531 23.531 8.4375-23.531h8.2656l-11.812 31.891h-9.7969z"/>
  </symbol>
  <symbol id="k" overflow="visible">
   <path d="m3.6719-33.234h7.6562v33.234h-7.6562z"/>
  </symbol>
  <symbol id="j" overflow="visible">
   <path d="m27.734-14.562v14.562h-7.7031v-11.156c0-2.0625-0.046875-3.4844-0.14062-4.2656-0.085937-0.78125-0.24219-1.3594-0.46875-1.7344-0.30469-0.5-0.71094-0.88281-1.2188-1.1562-0.51172-0.28125-1.0938-0.42188-1.75-0.42188-1.5938 0-2.8516 0.61719-3.7656 1.8438-0.90625 1.2305-1.3594 2.9375-1.3594 5.125v11.766h-7.6562v-23.922h7.6562v3.5c1.1445-1.3945 2.3633-2.4219 3.6562-3.0781 1.3008-0.66406 2.7383-1 4.3125-1 2.7578 0 4.8516 0.85156 6.2812 2.5469 1.4375 1.6875 2.1562 4.1523 2.1562 7.3906z"/>
  </symbol>
 </defs>
 <g>
  <path d="m125.49 405.27c-8.9609-4.4805-19.496-3.5156-27.5 2.4844-6.5703 4.9375-10.492 12.785-10.492 20.992v61.25c0 3.0195 1.5586 5.8203 4.1133 7.4219l70 43.75c1.3906 0.86328 2.9922 1.3281 4.6367 1.3281h393.75c1.3555 0 2.7031-0.31641 3.9102-0.91797l35-17.5c1.582-0.78906 2.8789-2.0391 3.7344-3.5781 0.91016-1.6289 21.84-40.234-0.050781-78.582-18.473-32.391-52.324-38.457-58.93-39.34-0.38672-0.054687-0.76953-0.082031-1.1641-0.082031h-92.629l-3.668-3.668c4.7148-1.6445 9.2305-3.7969 13.414-6.4062 4.2969-2.6758 7.9453-5.6875 11.172-8.8125l34.301 9.8008 4.8047-16.828-27.441-7.8398c3.6211-6.1875 5.8984-12.004 7.168-16.223 0.24609-0.81641 0.37891-1.6641 0.37891-2.5234v-17.98l20.949-8.9766-6.8867-16.082-14.062 6.0273v-6.7383c0-1.582-0.42969-3.1406-1.25-4.5078l-26.25-43.75c-1.3828-2.3086-3.7617-3.8516-6.4297-4.1836-2.6328-0.28906-5.3359 0.58594-7.2539 2.5039l-23.688 23.688h-5.1289v-110.13l12.371-12.371h11.227l24.047 16.031c4.0234 2.6875 9.4492 1.5938 12.137-2.4219l17.5-26.25c1.9609-2.9414 1.9609-6.7656 0-9.7031l-35-52.5c-1.6289-2.4453-4.3594-3.9062-7.2812-3.9062h-26.25c-3.3164 0-6.3438 1.8711-7.832 4.8398l-15.074 30.16h-94.188l-15.086-30.16c-1.4766-2.9688-4.5039-4.8398-7.8203-4.8398h-35c-2.8281 0-5.4766 1.3633-7.1133 3.668l-43.75 61.25c-2.4844 3.4727-2.0898 8.2422 0.92578 11.27l17.5 17.5c2.9492 2.957 7.5703 3.3945 11.043 1.0938l24.047-16.031h19.977l3.6211 3.6211v95.113c-23.102 8.3906-86.172 37.18-113.18 108.16-15.934 41.879-12.398 80.973-6.5273 106.58l-20.293-12.18v-30.047c0-10.012-5.5664-19.004-14.508-23.477zm303.26-107.77c2.3281 0 4.5508-0.91797 6.1875-2.5625l18.332-18.324 19.23 32.059v11.812l-29.699 12.723 6.8867 16.082 22.812-9.7734v9.1445c-1.3125 4.0352-3.668 9.5273-7.5781 15.078l-16.266-4.6445-4.8047 16.828 6.2812 1.793c-6.6758 4.1055-14.133 6.5781-22.191 7.332-3.3789 0.31641-6.2734 2.5547-7.4219 5.7383-1.1562 3.1953-0.35938 6.7539 2.0391 9.1523l17.5 17.5c1.6406 1.6445 3.8633 2.5625 6.1914 2.5625h95.629c5.0039 0.76172 31.457 5.9141 45.527 30.59 14.402 25.242 4.5586 51.434 1.0508 59.148l-30.523 15.262h-79.133l-6.3008-18.918v-22.18l11.199-16.801c1.3906-2.1016 3.7383-3.3516 6.25-3.3516 3.7812 0 5.7227 2.4922 6.3789 3.5625 0.66406 1.0781 2.0195 3.9297 0.33203 7.2969l-5.7383 11.48c-1.6797 3.3672-1.0234 7.4375 1.6445 10.098l8.75 8.75c1.6328 1.6445 3.8555 2.5625 6.1836 2.5625h43.75v-17.5h-40.129l-1.7227-1.7227 2.9219-5.8359c3.9023-7.8047 3.4844-16.906-1.1016-24.324-4.5859-7.4219-12.547-11.867-21.27-11.867-8.375 0-16.152 4.1641-20.809 11.129l-12.672 19.016c-0.95312 1.4414-1.4688 3.1328-1.4688 4.8555v26.25c0 0.9375 0.15625 1.8711 0.45312 2.7656l4.9102 14.734h-31.613v-61.25h-17.5v61.25h-26.25v-131.25c0-4.5156-3.4375-8.2969-7.9375-8.7148-6.4062-0.59375-12.418-2.3086-17.973-5.0391l11.488-4.3047-6.1523-16.391-21.523 8.0781c-5.6758-6.7031-8.8008-13.793-10.402-18.719v-9.1523l22.801 9.7734 6.8867-16.082-29.688-12.715v-11.812l19.234-32.059 18.332 18.324c1.6328 1.6445 3.8555 2.5625 6.1836 2.5625zm-258.26 200c3.1758 1.9062 7.2188 1.6094 10.078-0.76172 2.8516-2.3711 3.9102-6.2734 2.6328-9.7578-6.5469-17.816-19.652-64.82-0.035156-116.38 1.2852-3.3867 2.7461-6.5703 4.207-9.7461l0.015625 0.007813c29.461-64.023 91.754-86.223 103.95-90.02 3.6758-1.1289 6.1602-4.5156 6.1602-8.3477v-105c0-2.3203-0.91797-4.5508-2.5625-6.1875l-8.75-8.75c-1.6367-1.6445-3.8594-2.5625-6.1875-2.5625h-26.25c-1.7227 0-3.4219 0.51562-4.8555 1.4688l-20.281 13.52-7.1836-7.1836 36.828-51.555h25.086l15.086 30.16c1.4766 2.9688 4.5039 4.8398 7.8203 4.8398h105c3.3164 0 6.3438-1.8711 7.832-4.8398l15.074-30.16h16.16l29.164 43.75-9.4062 14.113-18.969-12.645c-1.4336-0.95312-3.1328-1.4688-4.8555-1.4688h-17.5c-2.3281 0-4.5508 0.91797-6.1875 2.5625l-17.5 17.5c-1.6445 1.6367-2.5625 3.8672-2.5625 6.1875v113.75h-22.629l-23.688-23.688c-1.9062-1.918-4.5938-2.8164-7.2539-2.5039-2.6758 0.33203-5.0469 1.8711-6.4297 4.1836l-26.25 43.75c-0.82031 1.3672-1.25 2.9258-1.25 4.5078v6.7383l-14.051-6.0195-6.8867 16.082 20.938 8.9688v17.98c0 0.85938 0.13281 1.707 0.375 2.5273 1.6094 5.3555 4.7852 13.246 10.43 21.262l-31.379 11.77 6.1523 16.391 38.098-14.289c2.0664 1.6641 4.2969 3.2656 6.7109 4.7695 6.7109 4.1836 14.234 7.1758 22.121 8.8359v53.68l-51.816-0.16797-0.050781 17.5 51.859 0.17188v52.551h-17.5c0-19.301-15.699-35-35-35h-17.5c0-43.418-35.324-78.75-78.75-78.75h-8.75v17.5h8.75c33.766 0 61.25 27.477 61.25 61.25v8.75c0 4.8281 3.9102 8.75 8.75 8.75h26.25c9.6523 0 17.5 7.8477 17.5 17.5h-163.74l-63.762-39.848v-56.402c0-2.7383 1.3047-5.3555 3.4922-7 2.7109-2.0312 6.1328-2.3438 9.1719-0.82422 3.0234 1.5156 4.8359 4.4375 4.8359 7.8242v35c0 3.0703 1.6172 5.9219 4.2422 7.5z"/>
  <path d="m165.28 327.09c-52.781-67.023-72.18-135.72-53.207-188.46 14.176-39.426 59.93-99.531 127.85-103.51 43.836-2.457 78.828 33.75 95.637 51.203 3.2109 3.3242 5.8086 6.0117 7.7344 7.7188 1.0586 0.94531 2.3438 1.6172 3.7188 1.9609l0.90234 0.21875c2.793 0.69141 5.7656-0.035156 7.918-1.9609 1.8633-1.6523 4.375-4.2266 7.4805-7.4219 17.09-17.551 52.762-53.996 96.785-51.512 67.926 3.9883 113.67 64.094 127.85 103.52 21.57 59.953-6.4844 139.94-75.031 213.95l12.836 11.891c73.078-78.906 102.49-165.55 78.672-231.77-15.758-43.793-66.91-110.58-143.3-115.06-51.926-3.1211-91.449 37.355-110.36 56.781-0.36719 0.375-0.73438 0.75391-1.0859 1.1094-0.48828-0.49609-0.98828-1.0195-1.5234-1.5742-18.621-19.336-57.664-59.656-109.26-56.523-76.387 4.4805-127.54 71.262-143.3 115.06-21.043 58.539-0.66406 133.33 55.922 205.21z"/>
  <path d="m315 166.25h17.5v17.5h-17.5z"/>
  <path d="m367.5 166.25h17.5v17.5h-17.5z"/>
  <path d="m332.5 201.25h35v17.5h-35z"/>
  <path d="m367.5 315h17.5v17.5h-17.5z"/>
  <path d="m420 315h17.5v17.5h-17.5z"/>
  <path d="m393.75 341.25h17.5v17.5h-17.5z"/>
  <use x="70" y="691.25" xlink:href="#n"/>
  <use x="102.109375" y="691.25" xlink:href="#i"/>
  <use x="123.683594" y="691.25" xlink:href="#c"/>
  <use x="153.355469" y="691.25" xlink:href="#b"/>
  <use x="182.878906" y="691.25" xlink:href="#a"/>
  <use x="203.792969" y="691.25" xlink:href="#c"/>
  <use x="233.464844" y="691.25" xlink:href="#d"/>
  <use x="280.011719" y="691.25" xlink:href="#h"/>
  <use x="311.328125" y="691.25" xlink:href="#g"/>
  <use x="355.078125" y="691.25" xlink:href="#f"/>
  <use x="390.988281" y="691.25" xlink:href="#e"/>
  <use x="405.984375" y="691.25" xlink:href="#m"/>
  <use x="437.132812" y="691.25" xlink:href="#d"/>
  <use x="468.449219" y="691.25" xlink:href="#e"/>
  <use x="483.445312" y="691.25" xlink:href="#a"/>
  <use x="504.359375" y="691.25" xlink:href="#a"/>
  <use x="525.273438" y="691.25" xlink:href="#b"/>
  <use x="570.027344" y="691.25" xlink:href="#l"/>
  <use x="603.886719" y="691.25" xlink:href="#b"/>
  <use x="633.410156" y="691.25" xlink:href="#k"/>
  <use x="648.40625" y="691.25" xlink:href="#c"/>
  <use x="678.078125" y="691.25" xlink:href="#j"/>
 </g>
</svg>
